# xmcd
#
# Track frame offsets:
#	150
#	16671
#	30787
#	44609
#	58458
#	77458
#	92042
#	108409
#	123485
#	142875
#	159824
#	176079
#	194064
#	210593
#	228619
#	248471
#	264949
#	282048
#	300066
#	319166
#	334400
#
# Disc length: 4677 seconds
#
# Revision: 1
# Processed by: cddbd v1.5.2PL0 Copyright (c) Steve Scherf et al.
# Submitted via: EasyCDDAExtractor 16.0.0.1
#
DISCID=12124315
DTITLE=Alabama - For The Record_41 Number One Hits cd1
DYEAR=1900
DGENRE=Country
TTITLE0=Five O'Clock 500
TTITLE1=Keepin' Up
TTITLE2=How Do You Fall In Love
TTITLE3=Tennessee River
TTITLE4=Why Lady Why
TTITLE5=Old Flame
TTITLE6=Feel So Right
TTITLE7=LoveIn The First Degree
TTITLE8=Mountain Music
TTITLE9=Take Me Down
TTITLE10=Close Enough To Perfect
TTITLE11=Dixieland Delight
TTITLE12=The Closer You Get
TTITLE13=Lady Down On Love
TTITLE14=Roll On 18 Wheeler
TTITLE15=When We Make Love
TTITLE16=If You're Gonna Play In Texas
TTITLE17=(There's A) Fire In The Night
TTITLE18=There's No Way
TTITLE19=40 Hour Week
TTITLE20=Can't Keep A Good Man
EXTD=
EXTT0=
EXTT1=
EXTT2=
EXTT3=
EXTT4=
EXTT5=
EXTT6=
EXTT7=
EXTT8=
EXTT9=
EXTT10=
EXTT11=
EXTT12=
EXTT13=
EXTT14=
EXTT15=
EXTT16=
EXTT17=
EXTT18=
EXTT19=
EXTT20=
PLAYORDER=
